<svg xmlns="http://www.w3.org/2000/svg" width="1184" height="718" viewBox="0 0 1184 718">
  <defs>
    <style>
      .cls-1 {
        fill: #fff;
      }

      .cls-2 {
        fill: #ffe293;
        stroke: #6a6a6a;
        stroke-width: 2px;
      }

      .cls-3 {
        stroke: none;
      }

      .cls-4 {
        fill: none;
      }
    </style>
  </defs>
  <g id="how-to" transform="translate(-163 -2187.952)">
    <rect id="Rectangle_13" data-name="Rectangle 13" class="cls-1" width="1184" height="718" transform="translate(163 2187.952)"/>
    <g id="point" transform="translate(814 -15)">
      <g id="Ellipse_1" data-name="Ellipse 1" class="cls-2" transform="translate(438 2255)">
        <circle class="cls-3" cx="15" cy="15" r="15"/>
        <circle class="cls-4" cx="15" cy="15" r="14"/>
      </g>
      <g id="Groupe_2" data-name="Groupe 2" transform="translate(450.503 2261.126) rotate(45)">
        <g id="Groupe_2-2" data-name="Groupe 2" transform="translate(9.019 4.51) rotate(135)">
          <rect id="Rectangle_10" data-name="Rectangle 10" width="1.799" height="6.377" rx="0.899"/>
          <rect id="Rectangle_11" data-name="Rectangle 11" width="1.799" height="6.377" rx="0.899" transform="translate(0 1.799) rotate(-90)"/>
        </g>
        <g id="Groupe_3" data-name="Groupe 3" transform="translate(6.515 4.51) rotate(-45)">
          <rect id="Rectangle_10-2" data-name="Rectangle 10" width="1.799" height="6.377" rx="0.899"/>
          <rect id="Rectangle_11-2" data-name="Rectangle 11" width="1.799" height="6.377" rx="0.899" transform="translate(0 1.799) rotate(-90)"/>
        </g>
      </g>
    </g>
    <g id="point-2" data-name="point" transform="translate(424 65)">
      <g id="Ellipse_1-2" data-name="Ellipse 1" class="cls-2" transform="translate(438 2255)">
        <circle class="cls-3" cx="15" cy="15" r="15"/>
        <circle class="cls-4" cx="15" cy="15" r="14"/>
      </g>
      <g id="Groupe_2-3" data-name="Groupe 2" transform="translate(450.503 2261.126) rotate(45)">
        <g id="Groupe_2-4" data-name="Groupe 2" transform="translate(9.019 4.51) rotate(135)">
          <rect id="Rectangle_10-3" data-name="Rectangle 10" width="1.799" height="6.377" rx="0.899"/>
          <rect id="Rectangle_11-3" data-name="Rectangle 11" width="1.799" height="6.377" rx="0.899" transform="translate(0 1.799) rotate(-90)"/>
        </g>
        <g id="Groupe_3-2" data-name="Groupe 3" transform="translate(6.515 4.51) rotate(-45)">
          <rect id="Rectangle_10-4" data-name="Rectangle 10" width="1.799" height="6.377" rx="0.899"/>
          <rect id="Rectangle_11-4" data-name="Rectangle 11" width="1.799" height="6.377" rx="0.899" transform="translate(0 1.799) rotate(-90)"/>
        </g>
      </g>
    </g>
    <g id="point-3" data-name="point" transform="translate(59 88)">
      <g id="Ellipse_1-3" data-name="Ellipse 1" class="cls-2" transform="translate(438 2255)">
        <circle class="cls-3" cx="15" cy="15" r="15"/>
        <circle class="cls-4" cx="15" cy="15" r="14"/>
      </g>
      <g id="Groupe_2-5" data-name="Groupe 2" transform="translate(450.503 2261.126) rotate(45)">
        <g id="Groupe_2-6" data-name="Groupe 2" transform="translate(9.019 4.51) rotate(135)">
          <rect id="Rectangle_10-5" data-name="Rectangle 10" width="1.799" height="6.377" rx="0.899"/>
          <rect id="Rectangle_11-5" data-name="Rectangle 11" width="1.799" height="6.377" rx="0.899" transform="translate(0 1.799) rotate(-90)"/>
        </g>
        <g id="Groupe_3-3" data-name="Groupe 3" transform="translate(6.515 4.51) rotate(-45)">
          <rect id="Rectangle_10-6" data-name="Rectangle 10" width="1.799" height="6.377" rx="0.899"/>
          <rect id="Rectangle_11-6" data-name="Rectangle 11" width="1.799" height="6.377" rx="0.899" transform="translate(0 1.799) rotate(-90)"/>
        </g>
      </g>
    </g>
    <g id="point-4" data-name="point" transform="translate(-208 73)">
      <g id="Ellipse_1-4" data-name="Ellipse 1" class="cls-2" transform="translate(438 2255)">
        <circle class="cls-3" cx="15" cy="15" r="15"/>
        <circle class="cls-4" cx="15" cy="15" r="14"/>
      </g>
      <g id="Groupe_2-7" data-name="Groupe 2" transform="translate(450.503 2261.126) rotate(45)">
        <g id="Groupe_2-8" data-name="Groupe 2" transform="translate(9.019 4.51) rotate(135)">
          <rect id="Rectangle_10-7" data-name="Rectangle 10" width="1.799" height="6.377" rx="0.899"/>
          <rect id="Rectangle_11-7" data-name="Rectangle 11" width="1.799" height="6.377" rx="0.899" transform="translate(0 1.799) rotate(-90)"/>
        </g>
        <g id="Groupe_3-4" data-name="Groupe 3" transform="translate(6.515 4.51) rotate(-45)">
          <rect id="Rectangle_10-8" data-name="Rectangle 10" width="1.799" height="6.377" rx="0.899"/>
          <rect id="Rectangle_11-8" data-name="Rectangle 11" width="1.799" height="6.377" rx="0.899" transform="translate(0 1.799) rotate(-90)"/>
        </g>
      </g>
    </g>
    <g id="point-5" data-name="point" transform="translate(106 574)">
      <g id="Ellipse_1-5" data-name="Ellipse 1" class="cls-2" transform="translate(438 2255)">
        <circle class="cls-3" cx="15" cy="15" r="15"/>
        <circle class="cls-4" cx="15" cy="15" r="14"/>
      </g>
      <g id="Groupe_2-9" data-name="Groupe 2" transform="translate(450.503 2261.126) rotate(45)">
        <g id="Groupe_2-10" data-name="Groupe 2" transform="translate(9.019 4.51) rotate(135)">
          <rect id="Rectangle_10-9" data-name="Rectangle 10" width="1.799" height="6.377" rx="0.899"/>
          <rect id="Rectangle_11-9" data-name="Rectangle 11" width="1.799" height="6.377" rx="0.899" transform="translate(0 1.799) rotate(-90)"/>
        </g>
        <g id="Groupe_3-5" data-name="Groupe 3" transform="translate(6.515 4.51) rotate(-45)">
          <rect id="Rectangle_10-10" data-name="Rectangle 10" width="1.799" height="6.377" rx="0.899"/>
          <rect id="Rectangle_11-10" data-name="Rectangle 11" width="1.799" height="6.377" rx="0.899" transform="translate(0 1.799) rotate(-90)"/>
        </g>
      </g>
    </g>
    <g id="point-6" data-name="point" transform="translate(324 252)">
      <g id="Ellipse_1-6" data-name="Ellipse 1" class="cls-2" transform="translate(438 2255)">
        <circle class="cls-3" cx="15" cy="15" r="15"/>
        <circle class="cls-4" cx="15" cy="15" r="14"/>
      </g>
      <g id="Groupe_2-11" data-name="Groupe 2" transform="translate(450.503 2261.126) rotate(45)">
        <g id="Groupe_2-12" data-name="Groupe 2" transform="translate(9.019 4.51) rotate(135)">
          <rect id="Rectangle_10-11" data-name="Rectangle 10" width="1.799" height="6.377" rx="0.899"/>
          <rect id="Rectangle_11-11" data-name="Rectangle 11" width="1.799" height="6.377" rx="0.899" transform="translate(0 1.799) rotate(-90)"/>
        </g>
        <g id="Groupe_3-6" data-name="Groupe 3" transform="translate(6.515 4.51) rotate(-45)">
          <rect id="Rectangle_10-12" data-name="Rectangle 10" width="1.799" height="6.377" rx="0.899"/>
          <rect id="Rectangle_11-12" data-name="Rectangle 11" width="1.799" height="6.377" rx="0.899" transform="translate(0 1.799) rotate(-90)"/>
        </g>
      </g>
    </g>
    <g id="point-7" data-name="point" transform="translate(195 24)">
      <g id="Ellipse_1-7" data-name="Ellipse 1" class="cls-2" transform="translate(438 2255)">
        <circle class="cls-3" cx="15" cy="15" r="15"/>
        <circle class="cls-4" cx="15" cy="15" r="14"/>
      </g>
      <g id="Groupe_2-13" data-name="Groupe 2" transform="translate(450.503 2261.126) rotate(45)">
        <g id="Groupe_2-14" data-name="Groupe 2" transform="translate(9.019 4.51) rotate(135)">
          <rect id="Rectangle_10-13" data-name="Rectangle 10" width="1.799" height="6.377" rx="0.899"/>
          <rect id="Rectangle_11-13" data-name="Rectangle 11" width="1.799" height="6.377" rx="0.899" transform="translate(0 1.799) rotate(-90)"/>
        </g>
        <g id="Groupe_3-7" data-name="Groupe 3" transform="translate(6.515 4.51) rotate(-45)">
          <rect id="Rectangle_10-14" data-name="Rectangle 10" width="1.799" height="6.377" rx="0.899"/>
          <rect id="Rectangle_11-14" data-name="Rectangle 11" width="1.799" height="6.377" rx="0.899" transform="translate(0 1.799) rotate(-90)"/>
        </g>
      </g>
    </g>
    <g id="point-8" data-name="point" transform="translate(-34 147)">
      <g id="Ellipse_1-8" data-name="Ellipse 1" class="cls-2" transform="translate(438 2255)">
        <circle class="cls-3" cx="15" cy="15" r="15"/>
        <circle class="cls-4" cx="15" cy="15" r="14"/>
      </g>
      <g id="Groupe_2-15" data-name="Groupe 2" transform="translate(450.503 2261.126) rotate(45)">
        <g id="Groupe_2-16" data-name="Groupe 2" transform="translate(9.019 4.51) rotate(135)">
          <rect id="Rectangle_10-15" data-name="Rectangle 10" width="1.799" height="6.377" rx="0.899"/>
          <rect id="Rectangle_11-15" data-name="Rectangle 11" width="1.799" height="6.377" rx="0.899" transform="translate(0 1.799) rotate(-90)"/>
        </g>
        <g id="Groupe_3-8" data-name="Groupe 3" transform="translate(6.515 4.51) rotate(-45)">
          <rect id="Rectangle_10-16" data-name="Rectangle 10" width="1.799" height="6.377" rx="0.899"/>
          <rect id="Rectangle_11-16" data-name="Rectangle 11" width="1.799" height="6.377" rx="0.899" transform="translate(0 1.799) rotate(-90)"/>
        </g>
      </g>
    </g>
  </g>
</svg>
