<svg id="Groupe_3959" data-name="Groupe 3959" xmlns="http://www.w3.org/2000/svg" xmlns:xlink="http://www.w3.org/1999/xlink" width="30" height="30.036" viewBox="0 0 30 30.036">
  <defs>
    <clipPath id="clip-path">
      <rect id="Rectangle_1301" data-name="Rectangle 1301" width="30" height="30.036" fill="none"/>
    </clipPath>
  </defs>
  <g id="Groupe_3958" data-name="Groupe 3958" clip-path="url(#clip-path)">
    <path id="Tracé_1927" data-name="Tracé 1927" d="M30,15.275A15,15,0,1,1,15.815.022,14.97,14.97,0,0,1,30,15.275M16.867,19.723V13.151H11.253v2.84h2.772v3.739h-2.8c0,.908,0,1.776.009,2.645,0,.063.12.159.2.179a1.656,1.656,0,0,0,.391.01H18.26c.512,0,.512,0,.512-.53,0-.633,0-1.265,0-1.9,0-.128-.013-.256-.021-.413Zm0-12.22H13.134v3.745h3.728Z" transform="translate(0 0)"/>
  </g>
</svg>
